<svg width="18" height="13" viewBox="0 0 18 13" fill="none" xmlns="http://www.w3.org/2000/svg">
<path d="M17.0708 2.41413L6.7293 12.7556C6.63771 12.8479 6.51303 12.8998 6.38296 12.8998C6.25289 12.8998 6.12821 12.8479 6.03662 12.7556L0.778082 7.49702C0.685731 7.4055 0.633789 7.28082 0.633789 7.15068C0.633789 7.02063 0.685731 6.89594 0.778082 6.80433L1.46101 6.12141C1.5526 6.02911 1.67728 5.97711 1.80735 5.97711C1.93742 5.97711 2.0621 6.02911 2.15369 6.12141L6.37808 10.3458L15.6952 1.02876C15.8881 0.84165 16.1949 0.84165 16.3878 1.02876L17.0708 1.72144C17.1632 1.81304 17.2151 1.93772 17.2151 2.06779C17.2151 2.19785 17.1632 2.32253 17.0708 2.41413Z" fill="#D6D6D6"/>
</svg>
